<svg width="32" height="32" viewBox="0 0 32 32" fill="none" xmlns="http://www.w3.org/2000/svg">
  <!-- Background circle -->
  <circle cx="16" cy="16" r="16" fill="url(#gradient)"/>
  
  <!-- Celebration elements -->
  <path d="M8 12C8 12 10 10 12 10C14 10 16 12 16 14C16 12 18 10 20 10C22 10 24 12 24 12" stroke="#FFD700" stroke-width="2" stroke-linecap="round"/>
  
  <!-- Hearts -->
  <path d="M12 18C12 18 13 17 14 17C15 17 16 18 16 19C16 18 17 17 18 17C19 17 20 18 20 18" fill="#FF69B4"/>
  
  <!-- Stars -->
  <path d="M6 8L7 9L8 8L7 7L6 8Z" fill="#FFD700"/>
  <path d="M26 8L27 9L28 8L27 7L26 8Z" fill="#FFD700"/>
  <path d="M16 6L17 7L18 6L17 5L16 6Z" fill="#FFD700"/>
  
  <!-- Gradient definition -->
  <defs>
    <linearGradient id="gradient" x1="0%" y1="0%" x2="100%" y2="100%">
      <stop offset="0%" style="stop-color:#FF69B4;stop-opacity:1" />
      <stop offset="100%" style="stop-color:#FF1493;stop-opacity:1" />
    </linearGradient>
  </defs>
</svg> 